<?xml version="1.0" encoding="UTF-8"?>
<svg id="Layer_1" data-name="Layer 1" xmlns="http://www.w3.org/2000/svg" viewBox="0 0 1013.05 1013.05">
  <defs>
    <style>
      .cls-1 {
        opacity: .5;
      }
    </style>
  </defs>
  <path d="M506.53,55.03c-249.37,0-451.51,202.16-451.51,451.5s202.14,451.5,451.51,451.5,451.5-202.15,451.5-451.5S755.9,55.03,506.53,55.03ZM849.13,650.22l-226.77,234.52c-27.27,34.96-68.18,55.32-112.51,55.93-.68.01-1.35.01-2.02.01-40.3,0-79.09-16.97-106.51-46.57l-236.02-237.42c-53.82-48.75-85.25-118.25-86.24-190.81-1.98-144.59,114.03-263.83,258.62-265.82,60.68-.79,118.65,18.97,165.67,56.04,46.02-38.41,103.36-59.73,164.08-60.56,70.69-1,137.44,25.92,187.69,75.45,49.43,48.72,77.18,113.77,78.13,183.17,1.02,74.2-29.63,145.61-84.11,196.06Z"/>
  <path class="cls-1" d="M933.24,454.15c-.95-69.4-28.7-134.45-78.13-183.17-50.25-49.53-117.01-76.45-187.69-75.45-60.72.83-118.06,22.16-164.08,60.56-47.02-37.07-104.99-56.82-165.67-56.04-144.59,1.99-260.6,121.23-258.62,265.82.99,72.57,32.42,142.07,86.24,190.81l236.02,237.42c27.42,29.6,66.21,46.57,106.51,46.57.68,0,1.35,0,2.02-.01,44.33-.61,85.24-20.97,112.51-55.93l226.77-234.52c54.48-50.45,85.13-121.86,84.11-196.06ZM810.31,609.28l-230.76,238.57-1.01,1.32c-16.69,21.92-42.01,34.71-69.47,35.08-25.25.36-49.55-10.17-66.63-28.75l-.37-.41-237.31-238.72-1.13-1.08c-42.54-38.29-67.39-93.03-68.17-150.2-1.56-113.48,89.5-207.08,202.99-208.64.97-.01,1.93-.02,2.89-.02,53.59,0,104.35,20.53,142.94,57.8l20.14,19.46,19.6-20c38.29-39.07,89.49-61.01,144.19-61.76,113.25-1.53,207.09,90.09,208.64,202.99.8,58.46-23.45,114.72-66.52,154.35Z"/>
  <g>
    <path d="M611.12,522.55c3.83-32.62,0-130.57,161.53-130.57,26.95,54.38,32.34,156.68-161.53,130.57Z"/>
    <path d="M402.33,522.55c-3.86-32.62,0-130.57-161.55-130.57-26.95,54.38-32.33,156.68,161.55,130.57Z"/>
    <polygon points="504.08 547.53 565.31 610.46 504.08 763.52 441.16 610.46 504.08 547.53"/>
  </g>
</svg>