<?xml version="1.0" encoding="UTF-8"?>
<svg id="Layer_1" data-name="Layer 1" xmlns="http://www.w3.org/2000/svg" viewBox="0 0 1018.18 456.41">
  <path d="M148.38,359.82c-14.37-8.39-25.37-19.46-33-33.19v41.58h-12.21V82.09h12.21v157.94c6.87-14.5,17.55-26.07,32.05-34.72,14.5-8.64,29.76-12.97,45.78-12.97s31.72,4.07,45.59,12.21c13.86,8.14,24.86,19.08,33,32.81,8.14,13.73,12.21,28.74,12.21,45.02s-4.07,31.28-12.21,45.02c-8.14,13.73-19.14,24.67-33,32.81-13.87,8.14-29.06,12.21-45.59,12.21-15.52,0-30.46-4.2-44.83-12.59ZM232.88,350.86c11.95-7.25,21.42-16.91,28.42-28.99,6.99-12.08,10.49-25.24,10.49-39.49s-3.56-27.09-10.68-39.29c-7.12-12.21-16.66-21.94-28.61-29.19-11.96-7.25-24.93-10.87-38.91-10.87s-27.03,3.69-39.1,11.06c-12.08,7.38-21.75,17.17-28.99,29.38-7.25,12.21-10.87,25.31-10.87,39.29s3.62,27.03,10.87,39.1c7.25,12.08,16.98,21.75,29.19,28.99,12.21,7.25,25.3,10.87,39.3,10.87s26.96-3.62,38.91-10.87Z"/>
  <path d="M341.8,352.58c-13.1-13.22-19.65-31.92-19.65-56.08v-99.95h12.21v99.95c0,20.86,5.53,36.95,16.6,48.26,11.06,11.32,26.64,16.98,46.73,16.98,12.21,0,23.4-2.73,33.57-8.2,10.17-5.47,18.18-13.16,24.04-23.08,5.85-9.92,8.77-21.23,8.77-33.95v-99.95h12.21v171.68h-12.21v-32.05c-5.85,10.68-14.63,19.4-26.32,26.13-11.7,6.74-25.05,10.11-40.06,10.11-24.17,0-42.79-6.61-55.89-19.84Z"/>
  <path d="M569.56,359.82c-14.37-8.39-25.37-19.46-33-33.19v41.58h-12.21V82.09h12.21v157.94c6.87-14.5,17.55-26.07,32.05-34.72,14.5-8.64,29.76-12.97,45.78-12.97s31.72,4.07,45.59,12.21c13.86,8.14,24.86,19.08,33,32.81,8.14,13.73,12.21,28.74,12.21,45.02s-4.07,31.28-12.21,45.02c-8.14,13.73-19.14,24.67-33,32.81-13.87,8.14-29.06,12.21-45.59,12.21-15.52,0-30.46-4.2-44.83-12.59ZM654.06,350.86c11.95-7.25,21.42-16.91,28.42-28.99,6.99-12.08,10.49-25.24,10.49-39.49s-3.56-27.09-10.68-39.29c-7.12-12.21-16.66-21.94-28.61-29.19-11.96-7.25-24.93-10.87-38.91-10.87s-27.03,3.69-39.1,11.06c-12.08,7.38-21.75,17.17-28.99,29.38-7.25,12.21-10.87,25.31-10.87,39.29s3.62,27.03,10.87,39.1c7.25,12.08,16.98,21.75,29.19,28.99,12.21,7.25,25.3,10.87,39.3,10.87s26.96-3.62,38.91-10.87Z"/>
  <path d="M778.05,361.54c-13.99-8.52-24.93-19.84-32.81-33.95-7.89-14.12-11.83-29.44-11.83-45.97s4.01-31.41,12.02-45.4c8.01-13.98,18.94-25.11,32.81-33.38,13.86-8.26,29.31-12.4,46.35-12.4s32.11,4.14,45.97,12.4c13.86,8.27,24.73,19.4,32.62,33.38,7.88,13.99,11.83,29.13,11.83,45.4s-3.81,32.62-11.44,46.73c-7.63,14.12-18.25,25.31-31.86,33.57-13.61,8.26-29.19,12.4-46.73,12.4s-32.94-4.26-46.93-12.78ZM864.65,352.58c11.95-7.37,21.3-17.23,28.04-29.57,6.74-12.33,10.11-25.88,10.11-40.63s-3.43-27.98-10.3-40.44c-6.87-12.46-16.28-22.38-28.23-29.76-11.96-7.37-25.18-11.06-39.68-11.06s-27.79,3.76-39.87,11.25c-12.08,7.5-21.62,17.49-28.61,29.95-7,12.46-10.49,25.94-10.49,40.44s3.49,27.92,10.49,40.25c6.99,12.34,16.53,22.19,28.61,29.57,12.08,7.38,25.5,11.06,40.25,11.06s27.72-3.68,39.68-11.06Z"/>
</svg>