<?xml version="1.0" encoding="UTF-8"?>
<svg xmlns="http://www.w3.org/2000/svg" viewBox="0 0 500 500">
  <defs>
    <style>
      .cls-1 {
        fill: #e3e3e3;
      }

      .cls-2 {
        stroke-width: 2px;
      }

      .cls-2, .cls-3, .cls-4, .cls-5, .cls-6, .cls-7, .cls-8 {
        stroke: #263238;
        stroke-miterlimit: 10;
      }

      .cls-2, .cls-4 {
        fill: none;
      }

      .cls-3 {
        fill: #bfbfbf;
      }

      .cls-5 {
        fill:rgb(166, 166, 166);
      }

      .cls-6 {
        fill:rgb(23, 162, 44);
      }

      .cls-7 {
        fill: #263238;
      }

      .cls-8 {
        fill: #fff;
      }
    </style>
  </defs>
  <g id="Hand_1" data-name="Hand 1">
    <g>
      <path class="cls-8" d="M248.29,100.69s1.85,9.88-.41,28.2c-2.26,18.32.82,40.75.82,40.75l-23.87,7.61s16.26-70.8,23.46-76.56Z"/>
      <path class="cls-6" d="M233.06,85.88s-1.44-8.64,1.23-14.61c2.68-5.97,8.64-14.82,11.32-12.97,2.68,1.85.21,8.23.21,8.23l-11.73,20.99-1.03-1.65Z"/>
      <path class="cls-8" d="M209.39,150.09s4.94-14.82,9.67-25.52,13.99-38.49,15.64-44.66,5.76-15.85,8.85-16.67c3.09-.82,7.61,3.09,8.85,13.99,1.23,10.91-3.29,24.7-4.73,30.05-1.44,5.35-9.06,28.81-9.47,30.25-.41,1.44-4.73,22.02-6.17,28.2-1.44,6.17-2.26,8.85-2.26,8.85l-28.4,11.11,8.03-35.6Z"/>
      <path class="cls-6" d="M290.48,157.7s-5.76-10.91-12.14-15.44c-6.38-4.53-8.85-2.47-8.44,1.65s1.65,7.61,1.65,7.61l20.37,11.11-1.44-4.94Z"/>
      <path class="cls-8" d="M146.21,475.87s38.69-81.29,44.66-100.43c5.97-19.14,8.64-23.26,11.11-33.75,2.47-10.5,4.73-14.41,7.2-20.99,2.47-6.59-4.53-13.17-10.5-28.61-5.97-15.44-22.43-56.8-22.84-64.83-.41-8.03,8.23-19.35,13.38-33.96,5.15-14.61,8.64-34.16,15.44-41.37,6.79-7.2,34.99-19.55,41.57-21.82,6.59-2.26,13.17-2.47,23.67-2.47s6.79,2.47,6.79,2.47c0,0,1.23,5.97-4.12,11.11s-26.75,9.06-29.64,11.11c-2.88,2.06-18.11,11.73-21.2,15.64-3.09,3.91-5.97,9.26-5.97,9.26l33.34-4.73s2.47,16.88,6.17,27.17,20.79,14.2,22.84,14.82c2.06.62,4.73-6.59,3.09-17.9-1.65-11.32-10.7-20.17-13.17-30.05-2.47-9.88.41-19.96,3.7-21.4s7,1.03,11.52,4.73,9.67,11.32,12.76,14.82c3.09,3.5,4.12,6.38,9.67,23.26,5.56,16.88,10.29,30.66,7.82,47.95-2.47,17.29-6.17,43.63-12.14,52.27-5.97,8.64-9.06,13.38-9.06,13.38,0,0-7.82,28.61-8.85,37.04-1.03,8.44-20.79,95.9-23.05,111.55-2.26,15.64-2.26,17.9-2.26,17.9"/>
      <path class="cls-4" d="M245.23,262.41s18.81,18.14,19.49,29.56c.67,11.42-4.03,15.45-4.03,15.45"/>
      <path class="cls-8" d="M205.68,216.97c9.26-6.59,9.88-16.88,9.88-16.88,0,0,10.08-8.03,13.38-10.08,3.29-2.06,22.02-4.94,28.4-9.26,6.38-4.32,8.85-11.32,8.85-11.32,0,0-.82-2.68-3.7-3.5-2.88-.82-22.02,0-26.55,1.44-4.53,1.44-22.64,6.79-29.02,9.47-6.38,2.68-8.85,8.44-12.97,14.82s-10.91,18.52-12.55,23.05"/>
      <path class="cls-4" d="M289.53,187.86c2.42-.24,5.21-.88,8.35-2.17"/>
      <path class="cls-4" d="M278.33,185.69s2.88,2.12,8.26,2.28"/>
      <path class="cls-4" d="M280.39,215.94s12.14,4.32,17.7,7.2c5.56,2.88,6.38,5.56,6.38,5.56"/>
      <path class="cls-4" d="M207.07,238.98c-2.73,1.96-5.61,3.41-8.59,4.13"/>
      <path class="cls-4" d="M233.06,194.75s-1.65,7.41-7,19.14c-3.51,7.7-9.15,16.64-15.99,22.69"/>
      <path class="cls-4" d="M254.25,207.92s-8.44,11.52-8.85,20.99"/>
      <path class="cls-6" d="M255.49,128.48s-4.12,2.68-1.23,4.12c2.88,1.44,20.79-1.44,25.31-3.09,4.53-1.65,4.12-2.68-2.68-3.5-6.79-.82-16.05-1.23-21.4,2.47Z"/>
      <path class="cls-6" d="M256.52,164.29s-11.94,2.88-10.91,4.73c1.03,1.85,6.79,2.68,13.17,2.68s14.82-1.85,14.82-1.85c0,0,1.44-3.5.62-4.12-.82-.62-6.59-3.5-17.7-1.44Z"/>
      <path class="cls-4" d="M193.34,222.32s5.35.21,10.08-3.91"/>
    </g>
  </g>
  <g id="Hand_2" data-name="Hand 2">
    <g>
      <path class="cls-8" d="M218.51,487.58s-2.4-8.28-6.68-18.16c-4.27-9.88-5.61-19.76-2.14-39.26,3.47-19.5,15.76-52.62,17.89-60.89,2.14-8.28-.52-43.43-.87-54.99s-1.6-24.18-.89-31.12c.71-6.93,5.16-9.6,5.16-9.6,0,0,1.95-4.18,9.16.36,0,0-5.34-16.29-1.6-22.43,3.74-6.14,7.48-6.14,10.42-4.54,2.94,1.6,4.27,4.01,4.27,4.01,0,0-4.81-13.62,1.07-17.36s10.95-2.4,17.36,5.88c6.41,8.28,16.83,32.58,21.63,44.07,4.81,11.48,9.35,31.52,9.35,31.52,0,0-1.07-20.83-4.01-34.72-2.94-13.89-8.01-25.64-7.75-32.32.27-6.68,6.14-10.95,9.88-9.35,3.74,1.6,8.55,6.68,11.75,13.62s12.02,32.58,14.16,45.14,3.47,45.14,2.67,62.76c-.8,17.63-12.02,38.73-18.7,48.88-6.68,10.15-17.63,19.5-18.7,41.13-1.07,21.63,7.75,36.06,7.75,36.06"/>
      <path class="cls-4" d="M302.64,315.04s3.47,24.04,3.74,33.39"/>
      <path class="cls-8" d="M253.23,250.94s5.88,6.41,15.76,39.53c9.88,33.12,12.82,69.44,12.82,69.44"/>
      <path class="cls-8" d="M254.61,355.84c.76,7.02,1.28,11.01,1.28,11.01"/>
      <path class="cls-8" d="M240.14,273.91s4.27,1.87,5.88,14.16c1.45,11.09,5.94,44.39,7.59,58.42"/>
      <path class="cls-4" d="M311.72,377.27s.53,4.54-5.61,12.82"/>
      <path class="cls-4" d="M284.47,388.22s-1.34,8.81-9.35,13.62"/>
      <path class="cls-4" d="M254.83,394.9s-3.47,5.07-7.21,6.68"/>
      <g>
        <path class="cls-6" d="M228.67,266.26s1.24,14.76,1.42,19.56c.18,4.8,4.09,5.87,7.29,4.45,3.2-1.42,4.09-4.8,2.67-10.14-1.42-5.33-3.73-13.51-4.98-15.11-1.24-1.6-5.69-.18-6.4,1.24Z"/>
        <path class="cls-6" d="M246.09,239.77s-2.13-1.96-4.8-1.96-4.27,3.02-4.09,3.91c.18.89,3.38,12.45,6.05,16.18,2.67,3.73,4.62,5.51,6.4,5.16s6.22-.89,6.22-2.31-2.67-11.2-9.78-20.98Z"/>
        <path class="cls-6" d="M252.5,228.57s.89,6.76,2.67,10.31,3.91,8.18,7.65,8.71,8.71-1.96,8.89-3.2c.18-1.24-8.89-16.71-11.74-18.85-2.84-2.13-7.47-.36-7.47,3.02Z"/>
        <path class="cls-6" d="M309.04,251.68s-2.67-11.74-6.4-16.54c-3.73-4.8-6.93-5.51-9.25-2.49-2.31,3.02.89,8.71,1.96,11.74,1.07,3.02,1.6,7.29,4.09,8.71,2.49,1.42,8,2.67,9.6-1.42Z"/>
      </g>
    </g>
  </g>
  <g id="Nail_Pincer" data-name="Nail Pincer">
    <g>
      <path class="cls-8" d="M308.85,236.15l18.81-1.36.24-7.1s-17.01.7-19.05,8.46Z"/>
      <path class="cls-8" d="M310.87,244.66l17.33-6,5.06,5.92s-15.27,5.23-22.39.08Z"/>
      <g>
        <path class="cls-8" d="M359.49,226.3c.68-.13,1.13-.79,1-1.47s-.79-1.13-1.47-1c-.68.13-1.13.79-1,1.47s.79,1.13,1.47,1Z"/>
        <path class="cls-8" d="M388.27,243.3c-.05-.24-.23-.44-.48-.49-.06-.01-5.78-1.33-8.29-2.76-1.71-.97-4.8-4.93-6.84-7.55-1.02-1.3-1.82-2.34-2.33-2.86-1.62-1.69-9.92-4.81-10.86-5.16-.32-.12-.69.04-.81.37-.12.32.04.69.37.81,2.48.92,9.18,3.59,10.39,4.85.46.48,1.29,1.54,2.24,2.77,2.36,3.02,5.29,6.78,7.21,7.87,2.67,1.52,8.39,2.83,8.64,2.89.34.08.68-.13.75-.47.02-.09.02-.17,0-.26Z"/>
      </g>
      <path class="cls-7" d="M327.9,227.69l11.16-1.27,7.49-2.87,5.46,4.51,1.59,8.31-18.29,6.95s-3.89-4.33-4.49-5.46l1.48-.76-.73-2.83-3.91.51.24-7.1Z"/>
      <path class="cls-8" d="M392.15,251.66c-5.04-2.04-27.62-8.9-29.33-9.28-9.75-2.17-27.76-.92-27.76-.92,0,0-.93-.87-2.75-4.36-1.82-3.48-2.45-9.3-2.45-9.3,0,0,16.72-2.1,16.73-2.11,1.97-.25,3.68,1.23,4.47,2.92.4.86.58,1.78.48,2.72-.13,1.2-.56,2.33.42,3.33,1.11,1.13,11.21,2.71,11.21,2.71,0,0,14.67,4.02,18.45,4.94,5.02,1.23,6.22-.37,8.96-.35,2.74.02,3.56,2.87,4.36,4.22.81,1.35,5.04,2.73,7.82,3.7,2.78.97,12.83,3.42,20.61,1.93,7.78-1.49,14.15-4.63,13.8-2.92-.36,1.71-7.64,6.52-16.63,8.11-8.99,1.59-23.34-3.32-28.38-5.36Z"/>
      <polygon class="cls-7" points="330.82 237.86 328.84 239.01 332.73 243.82 335.32 243.32 330.82 237.86"/>
      <g>
        <path class="cls-4" d="M342.24,238.26c2.42-.46,4.01-2.8,3.55-5.23-.46-2.42-2.8-4.01-5.23-3.55-2.42.46-4.01,2.8-3.55,5.23s2.8,4.01,5.23,3.55Z"/>
        <line class="cls-2" x1="337.66" y1="231.1" x2="344.59" y2="236.76"/>
      </g>
      <path class="cls-8" d="M346.56,223.55s9.26-3.55,14.29-8.36c5.04-4.81,19.53-17.97,26-23.83,6.47-5.86,9.66-8.77,18.55-11.54,8.89-2.76,16.78-.24,17.94-.17,1.17.06,1.55.57.43,1.26s-12.56.68-20.34,5.25c-7.78,4.57-19.41,14.1-23.83,18.6-4.42,4.5-15.37,14.1-19.96,18.25-4.59,4.15-7.64,5.05-7.64,5.05l-5.46-4.51Z"/>
      <path class="cls-4" d="M390.3,245.7c.54-.1.9-.63.79-1.17s-.63-.9-1.17-.79c-.54.1-.9.63-.79,1.17.1.54.63.9,1.17.79Z"/>
      <path class="cls-6" d="M423.35,251.83c7.78-1.49,14.15-4.63,13.8-2.92-.36,1.71-7.64,6.52-16.63,8.11-8.99,1.59-23.34-3.32-28.38-5.36-4.04-1.64-19.36-6.37-26.15-8.37l2.25-4.51c4.62,1.25,11.04,2.99,13.36,3.55,5.02,1.23,6.22-.37,8.96-.35,2.74.02,3.56,2.87,4.36,4.22.81,1.35,5.04,2.73,7.82,3.7,2.78.97,12.83,3.42,20.61,1.93Z"/>
      <path class="cls-8" d="M346.56,223.55s9.26-3.55,14.29-8.36c5.04-4.81,19.53-17.97,26-23.83,6.47-5.86,9.66-8.77,18.55-11.54,8.89-2.76,16.78-.24,17.94-.17,1.17.06,1.55.57.43,1.26s-12.56.68-20.34,5.25c-7.78,4.57-19.41,14.1-23.83,18.6-4.42,4.5-15.37,14.1-19.96,18.25-4.59,4.15-7.64,5.05-7.64,5.05l-5.46-4.51Z"/>
      <path class="cls-6" d="M379.61,204.76c-3.18,3.24-9.74,9.11-14.88,13.7l-3.94-3.23s.04-.03.05-.05c5.04-4.81,19.53-17.97,26-23.83,6.47-5.86,9.66-8.77,18.55-11.54,8.89-2.76,16.78-.24,17.94-.17s1.55.57.43,1.26c-1.12.69-12.56.68-20.34,5.25-7.78,4.57-19.41,14.1-23.83,18.6Z"/>
    </g>
  </g>
  <g id="Nail_Drill" data-name="Nail Drill">
    <g>
      <path class="cls-8" d="M189.04,271.73s4.79.8,7.78-1c2.99-1.8,5.39-7.18,3.99-10.18s-2.79-4.39-4.79-5.99c-2-1.6-11.38-8.58-16.56-14.77-5.19-6.19-4.19-5.59-7.58-8.38s-40.29-17.7-40.29-17.7l-2.34.95-12.26-3.2-71.25-31.13s-2.79-1.2-6.19,0c-3.39,1.2-7.18,5.39-7.98,9.78-.8,4.39,1,8.78,2.39,9.98s73.04,37.52,73.04,37.52c0,0,2.39,3.79,7.38,6.98s33.93,16.96,49.09,21.55c15.17,4.59,25.55,5.59,25.55,5.59Z"/>
      <path class="cls-8" d="M199.72,265.83c-1.41,3.37-4.16,5.43-6.14,4.6-1.97-.83-2.43-4.23-1.01-7.6,1.41-3.37,4.16-5.43,6.14-4.6,1.97.83,2.43,4.23,1.01,7.6Z"/>
      <g>
        <path class="cls-7" d="M197.58,263.32c-.63-.26-1.5.39-1.95,1.46-.45,1.07-.3,2.15.32,2.41l9.59,4.29,1.63-3.87-9.59-4.29Z"/>
        <path class="cls-7" d="M207.49,270.02c-.45,1.07-1.32,1.72-1.95,1.46-.63-.26-.77-1.34-.32-2.41.45-1.07,1.32-1.72,1.95-1.46s.77,1.34.32,2.41Z"/>
      </g>
      <path class="cls-5" d="M210.07,262.75c-.73-.25-1.53-.08-2.08.46-1.08,1.03-2.84,3-4.01,5.75-1.78,4.2-1.57,6.08-.94,6.61.63.52,8.71,4.72,13.43,5.35,4.72.63,8.29-1.15,9.02-3.04s-2.41-8.39-6.08-10.91c-2.75-1.88-7.24-3.51-9.33-4.22Z"/>
      <path class="cls-4" d="M189.75,270.56s-.3-4.01-4.16-6.69c-3.86-2.68-23.78-11.89-33-17.54-9.22-5.65-13.08-6.24-13.08-6.24l.59,14.72"/>
      <path class="cls-4" d="M139.51,240.08s-3.27,4.91-2.97,9.22c.3,4.31,2.08,6.09,2.08,6.09"/>
      <path class="cls-1" d="M122.86,220.31s.45.21,1.25.58c5.37,2.51,26.52,12.49,34.27,17.4,8.92,5.65,21.85,12.64,21.85,12.64,0,0-7.58-9.81-10.7-11.45-3.12-1.64-46.23-21.26-46.23-21.26l-.45,2.08Z"/>
      <line class="cls-4" x1="123.3" y1="218.23" x2="129.25" y2="214.66"/>
      <path class="cls-6" d="M165.94,229.32s-2.88,1.29-3.08,1.89c-.2.6-.2,2.58-.2,2.58,0,0,4.57,2.98,7.15,3.58,2.58.6,4.07-1.19,4.17-1.79.1-.6.2-2.19-.79-2.88-.99-.7-7.25-3.38-7.25-3.38Z"/>
      <path class="cls-4" d="M120.8,221.19s-9.12,7.68-6.41,23.41"/>
      <line class="cls-4" x1="108.41" y1="234.61" x2="111.92" y2="236.56"/>
      <line class="cls-4" x1="108.61" y1="228" x2="113.08" y2="230.53"/>
      <line class="cls-4" x1="109.19" y1="222.16" x2="115.03" y2="225.28"/>
      <line class="cls-4" x1="113.28" y1="217.69" x2="117.95" y2="220.61"/>
      <line class="cls-4" x1="117.56" y1="214.77" x2="122.42" y2="216.72"/>
    </g>
  </g>
  <g id="Nail_Polish" data-name="Nail Polish">
    <g>
      <rect class="cls-3" x="298.33" y="61.14" width="6.62" height="54.71" rx="2.33" ry="2.33" transform="translate(509.81 324.05) rotate(-147.82)"/>
      <path class="cls-7" d="M335.3,12.6s3.88-1.99,10.72,2.32c.47.3,2.26,1.43,2.74,1.72,6.85,4.31,6.73,8.66,6.73,8.66l-32.25,58.84-13.52-8.51-13.52-8.51,39.1-54.54Z"/>
      <path class="cls-6" d="M285.87,110.89s-4.26,2.75-7.81,4.73c-3.55,1.98-6.59,2.75-6.06,3.51.53.77,4.5,5.47,6.56,5.17.84-.12,4.24-1.57,5.79-3.95,2.25-3.45,4.47-7.59,4.47-7.59l-2.96-1.88Z"/>
    </g>
  </g>
</svg>